<?xml version="1.0" encoding="UTF-8" standalone="no"?>
<svg
   xmlns:svg="http://www.w3.org/2000/svg"
   xmlns="http://www.w3.org/2000/svg"
   fill="none"
   viewBox="0 0 14 14"
   height="14"
   width="14"
   version="1.1">
  <path
     fill="#616161"
     class="jp-icon3"
     d="m 1,2.6500001 c 0,0.125 0.125,0.25 0.25,0.25 L 2,2.9 v 5.2 c 0,0.25 0.25,0.5 0.5,0.5 h 4.2 v 1.5 l -1.4584887,1.129303 c -0.095756,0.08035 -0.1111628,0.256453 -0.030814,0.352208 0.089954,0.09573 0.2660585,0.111141 0.352208,0.03081 L 6.95,10.521 8.3370953,11.612325 c 0.086149,0.08033 0.2622534,0.06492 0.352208,-0.03081 0.080348,-0.09576 0.064941,-0.271859 -0.030814,-0.352208 L 7.2,10.1 V 8.6 l 4.2,4e-7 c 0.25,0 0.5,-0.25 0.5,-0.5 V 2.9 l 0.75,1e-7 c 0.125,0 0.25,-0.125 0.25,-0.25 0,-0.125 -0.125,-0.25 -0.25,-0.25 H 1.25 c -0.125,0 -0.25,0.125 -0.25,0.25 z M 2.5,2.9 h 8.9 V 8.1 H 2.5 Z"
     />
  <path
     fill="#616161"
     class="jp-icon3"
     d="M 5.8336309,4.0361844 V 6.9916698 L 8.4287211,5.4933937 Z"
     />
</svg>
