<?xml version="1.0" encoding="UTF-8" standalone="no"?>
<svg
   xmlns:svg="http://www.w3.org/2000/svg"
   xmlns="http://www.w3.org/2000/svg"
   fill="none"
   viewBox="0 0 14 14"
   height="14"
   width="14"
   version="1.1">
  <path
     fill="#616161"
     class="jp-icon3"
     d="M 1,2.9 C 1,3.15 1.25,3.4 1.5,3.4 H 2 V 8.1 C 2,8.35 2.25,8.6 2.5,8.6 H 6.45 L 6.4499798,9.6360626 5.15811,10.719141 c -0.191515,0.160701 -0.22233,0.512915 -0.061629,0.704431 0.1607,0.191515 0.5129145,0.222329 0.7044298,0.06163 L 6.95,10.521 8.0990903,11.485201 c 0.1915155,0.160701 0.5437304,0.129886 0.7044305,-0.06163 0.1606994,-0.191516 0.1298847,-0.54373 -0.06163,-0.70443 L 7.4499998,9.6360626 7.45,8.6 h 3.95 c 0.25,0 0.5,-0.25 0.5,-0.5 V 3.4 h 0.5 c 0.25,0 0.5,-0.25 0.5,-0.5 0,-0.25 -0.25,-0.5 -0.5,-0.5 H 1.5 C 1.25,2.4 1,2.65 1,2.9 Z m 2,0.5 h 7.9 V 7.6 H 3 Z"
     />
  <path
     fill="#616161"
     class="jp-icon3"
     d="M 5.8336309,4.0361844 V 6.9916698 L 8.4287211,5.4933937 Z"
     />
</svg>
